<mxfile host="app.diagrams.net" modified="2023-07-14T12:51:04.738Z" agent="Mozilla/5.0 (Macintosh; Intel Mac OS X 10_15_7) AppleWebKit/537.36 (KHTML, like Gecko) Chrome/114.0.0.0 Safari/537.36" version="21.6.2" etag="Ea94lW4qhkIFzsTJcXiM" type="github">
  <diagram name="페이지-1" id="t1ny5fFJMmV2qOuv92IM">
    <mxGraphModel>
      <root>
        <mxCell id="0" />
        <mxCell id="1" parent="0" />
      </root>
    </mxGraphModel>
  </diagram>
</mxfile>
